<svg width="850" height="950" xmlns="http://www.w3.org/2000/svg">
    <!-- Definitions for markers (arrows) and styles -->
    <defs>
        <marker id="arrow" viewBox="0 0 10 10" refX="9" refY="5" markerWidth="6" markerHeight="6" orient="auto-start-reverse">
            <path d="M 0 0 L 10 5 L 0 10 z" fill="#495057" />
        </marker>
        <style>
            .box { fill: #f8f9fa; stroke: #495057; stroke-width: 2; rx: 8; }
            .added-h5 { fill: #d4edda; stroke: #28a745; stroke-width: 2; rx: 8; } /* green for H5 modules */
            .added-h6 { fill: #cce5ff; stroke: #004085; stroke-width: 2; rx: 8; } /* blue for H6 modules */
            .fusion { fill: #fff3cd; stroke: #856404; stroke-width: 2; rx: 8; } /* yellow for DCSA */
            .text { font-family: Arial, sans-serif; font-size: 14px; fill: #212529; text-anchor: middle; }
            .text-sm { font-family: Arial, sans-serif; font-size: 12px; fill: #495057; text-anchor: middle; }
            .title { font-family: Arial, sans-serif; font-size: 18px; font-weight: bold; fill: #212529; }
            .group { fill: none; stroke: #adb5bd; stroke-width: 2; stroke-dasharray: 5,5; rx: 12; }
            .line { stroke: #495057; stroke-width: 2; fill: none; marker-end: url(#arrow); }
            .line-dashed { stroke: #495057; stroke-width: 2; fill: none; stroke-dasharray: 5,5; marker-end: url(#arrow); }
        </style>
    </defs>

    <!-- Title -->
    <text x="425" y="40" class="title" text-anchor="middle">H6 MoE Pipeline (Clip Codebook) Architecture</text>

    <!-- Input -->
    <rect x="325" y="70" width="200" height="40" class="box"/>
    <text x="425" y="95" class="text">3D Skeleton Input</text>
    <text x="425" y="125" class="text-sm">(B, T, 25, 3)</text>
    
    <!-- Split lines from input -->
    <path d="M 425 110 L 425 150" class="line" marker-end="none"/>
    <path d="M 215 150 L 635 150" class="line" marker-end="none"/>
    <path d="M 215 150 L 215 180" class="line"/>
    <path d="M 635 150 L 635 180" class="line"/>

    <!-- ==================== Continuous Branch ==================== -->
    <rect x="50" y="160" width="330" height="240" class="group"/>
    <text x="215" y="195" class="title" text-anchor="middle">Continuous Branch</text>

    <rect x="115" y="210" width="200" height="40" class="box"/>
    <text x="215" y="235" class="text">Linear Projection</text>

    <rect x="115" y="280" width="200" height="40" class="box"/>
    <text x="215" y="305" class="text">Continuous Spatio-Temporal PE</text>

    <rect x="115" y="350" width="200" height="30" class="box" stroke-dasharray="2,2"/>
    <text x="215" y="370" class="text">Queries (Q)</text>

    <!-- Lines for Continuous -->
    <path d="M 215 250 L 215 280" class="line"/>
    <path d="M 215 320 L 215 350" class="line"/>


    <!-- ==================== Discrete Branch ==================== -->
    <rect x="470" y="160" width="330" height="240" class="group"/>
    <text x="635" y="195" class="title" text-anchor="middle">Discrete Branch</text>

    <rect x="535" y="210" width="200" height="40" class="box"/>
    <text x="635" y="235" class="text">Stage 1 VQ Codebook (Clip)</text>

    <rect x="535" y="280" width="200" height="40" class="added-h5"/>
    <text x="635" y="305" class="text">Discrete Spatio-Temporal PE</text>

    <rect x="535" y="350" width="200" height="30" class="box" stroke-dasharray="2,2"/>
    <text x="635" y="370" class="text">Keys (K) &amp; Values (V)</text>

    <!-- Lines for Discrete -->
    <path d="M 635 250 L 635 280" class="line"/>
    <path d="M 635 320 L 635 350" class="line"/>


    <!-- ==================== DCSA Fusion ==================== -->
    <rect x="325" y="430" width="200" height="60" class="fusion"/>
    <text x="425" y="455" class="title" fill="#856404" text-anchor="middle">DCSA Module</text>
    <text x="425" y="475" class="text" font-size="12px">(Asymmetric Cross-Modal Alignment)</text>

    <!-- Cross connections to DCSA -->
    <path d="M 215 380 L 215 460 L 325 460" class="line"/>
    <path d="M 635 380 L 635 460 L 525 460" class="line"/>


    <!-- ==================== DSTFormer Block ==================== -->
    <rect x="250" y="520" width="350" height="320" class="group"/>
    <text x="425" y="545" class="title" text-anchor="middle">DSTFormer Block (x N)</text>

    <path d="M 425 490 L 425 550" class="line"/>

    <rect x="325" y="560" width="200" height="40" class="box"/>
    <text x="425" y="585" class="text">Spatial Self-Attention</text>

    <rect x="325" y="620" width="200" height="40" class="added-h6"/>
    <text x="425" y="645" class="text">Spatial MoE FFN</text>

    <rect x="325" y="680" width="200" height="40" class="added-h5"/>
    <text x="425" y="705" class="text">Temporal Self-Attention + RoPE</text>

    <rect x="300" y="740" width="250" height="50" class="added-h6"/>
    <text x="425" y="760" class="text">Temporal MoE FFN</text>
    <text x="425" y="780" class="text-sm">(with LTC + SwiGLU Gating)</text>

    <!-- Lines inside DSTFormer -->
    <path d="M 425 600 L 425 620" class="line"/>
    <path d="M 425 660 L 425 680" class="line"/>
    <path d="M 425 720 L 425 740" class="line"/>

    <!-- Output -->
    <path d="M 425 790 L 425 860" class="line"/>

    <rect x="325" y="860" width="200" height="40" class="box"/>
    <text x="425" y="885" class="text">Predicted EMG Sequence</text>


    <!-- ==================== Legend ==================== -->
    <rect x="50" y="810" width="220" height="110" class="group"/>
    <text x="160" y="835" class="title" font-size="14px" text-anchor="middle">Legend</text>
    
    <rect x="60" y="845" width="20" height="20" class="box"/>
    <text x="90" y="860" class="text" text-anchor="start">Original Module</text>
    
    <rect x="60" y="870" width="20" height="20" class="added-h5"/>
    <text x="90" y="885" class="text" text-anchor="start">Added in H5 (Underlying bias)</text>
    
    <rect x="60" y="895" width="20" height="20" class="added-h6"/>
    <text x="90" y="910" class="text" text-anchor="start">Added in H6 (MoE Routing)</text>
</svg>